<svg xmlns="http://www.w3.org/2000/svg" xmlns:xlink="http://www.w3.org/1999/xlink" version="1.1" width="1000" height="1000" viewBox="0 0 1000 1000" xml:space="preserve">
<desc>Created with Fabric.js 3.5.0</desc>
<defs>
</defs>
<rect x="0" y="0" width="100%" height="100%" fill="#ffff66"/>
<g transform="matrix(1.1806 0 0 1.3629 481.6735 452.2897)" id="567875">
<g style="" vector-effect="non-scaling-stroke">
		<g transform="matrix(0.1333 0 0 -0.1333 19.6221 45.7585)">
<path style="stroke: none; stroke-width: 1; stroke-dasharray: none; stroke-linecap: butt; stroke-dashoffset: 0; stroke-linejoin: miter; stroke-miterlimit: 4; is-custom-font: none; font-file-url: none; fill: rgb(0,0,0); fill-rule: nonzero; opacity: 1;" transform=" translate(-3312.8711, -2526.1979)" d="M 4898 4950 c -78 -26 -190 -86 -243 -130 c -11 -9 -40 -28 -65 -42 c -25 -14 -53 -35 -63 -46 c -11 -11 -24 -18 -31 -16 c -7 3 -19 -2 -26 -11 c -11 -13 -8 -15 17 -15 c 16 0 32 -3 36 -6 c 9 -9 -4 -34 -18 -34 c -7 0 -38 -13 -71 -29 l -58 -30 l -287 -1 c -159 0 -340 5 -406 12 c -172 17 -589 14 -743 -6 c -221 -29 -321 -51 -565 -121 c -150 -44 -178 -49 -240 -47 c -170 4 -319 2 -325 -5 c -4 -5 -10 -22 -13 -39 c -6 -31 -5 -32 42 -38 c 27 -4 60 -15 74 -26 c 14 -12 42 -27 61 -35 c 20 -9 36 -22 36 -30 c 0 -22 -58 -47 -130 -56 c -116 -14 -173 -29 -260 -71 c -121 -58 -171 -74 -218 -70 c -38 4 -42 7 -48 37 c -3 18 -19 47 -35 65 c -36 39 -35 66 3 63 c 21 -1 28 3 30 20 c 3 25 -7 25 213 3 c 83 -8 166 -15 185 -15 c 39 0 43 -3 -45 34 c -52 23 -109 35 -157 35 c -27 0 -48 5 -48 10 c 0 6 17 10 38 10 c 21 0 43 5 50 12 c 6 6 53 14 104 18 c 90 6 92 6 53 17 c -125 35 -415 20 -524 -27 c -90 -39 -135 -121 -111 -204 c 6 -23 14 -54 17 -70 c 3 -15 23 -64 44 -107 c 22 -44 39 -87 39 -96 c 0 -9 -10 -37 -21 -62 c -12 -25 -26 -55 -31 -67 c -5 -12 -9 -30 -7 -40 c 3 -21 -19 -106 -30 -114 c -3 -3 -11 -24 -17 -47 c -10 -40 -10 -42 8 -32 c 10 6 24 21 30 34 c 6 13 17 26 24 29 c 23 9 60 -36 67 -80 c 6 -37 0 -54 -58 -170 c -36 -71 -65 -136 -65 -144 c 0 -19 47 -90 60 -90 c 5 0 21 11 36 25 c 37 34 46 31 28 -10 c -13 -31 -27 -52 -59 -89 c -42 -47 -48 -90 -36 -280 c 2 -19 41 28 41 49 c 0 45 102 165 140 165 c 15 0 -7 -35 -72 -113 c -41 -50 -48 -64 -48 -101 c 0 -25 -11 -67 -25 -98 l -25 -55 l 20 -46 c 11 -25 25 -49 29 -52 c 13 -7 1 -45 -23 -79 c -15 -21 -18 -30 -8 -33 c 6 -3 12 -17 12 -32 c 0 -15 7 -50 15 -77 c 8 -27 15 -62 15 -79 c 0 -26 2 -27 14 -15 c 12 12 13 29 7 81 c -5 37 -6 78 -4 93 c 6 31 26 30 31 -1 c 2 -12 11 -23 21 -26 c 12 -3 20 -17 24 -43 c 3 -22 8 -47 12 -56 c 5 -13 2 -18 -8 -18 c -26 0 -27 -15 -7 -66 c 10 -27 27 -76 36 -109 c 10 -33 23 -67 31 -76 c 7 -8 13 -23 13 -32 c 0 -9 5 -19 10 -22 c 9 -6 41 -50 75 -104 c 6 -9 22 -31 38 -49 c 15 -18 27 -39 27 -47 c 0 -18 17 -20 22 -3 c 3 7 8 -7 12 -32 c 4 -27 16 -55 32 -70 c 13 -14 41 -58 62 -99 c 21 -41 43 -76 50 -79 c 16 -5 16 42 0 71 c -10 19 -19 267 -21 547 c 0 64 19 199 22 150 c 1 -14 5 -74 11 -135 c 13 -151 13 -173 7 -312 c -4 -74 -2 -125 3 -128 c 6 -4 10 -13 10 -22 c 0 -24 81 -186 105 -208 c 11 -11 27 -29 35 -40 c 9 -11 48 -51 88 -89 c 68 -64 75 -68 109 -63 c 20 4 46 15 58 27 c 29 28 42 25 50 -10 c 4 -19 13 -30 23 -30 c 19 0 32 -17 74 -100 c 48 -95 31 -157 -41 -146 c -72 11 -198 34 -269 50 c -40 9 -88 16 -107 16 c -19 0 -36 4 -39 9 c -3 4 -24 11 -47 15 c -23 4 -53 13 -68 20 c -14 8 -73 17 -131 21 c -58 3 -122 11 -142 16 c -23 6 -52 6 -80 0 c -23 -6 -45 -8 -47 -5 c -3 3 2 17 11 31 c 15 26 15 27 -19 62 c -44 45 -54 71 -43 111 c 7 23 4 47 -10 93 c -27 85 -26 120 5 151 c 14 14 25 34 25 45 c 0 26 -21 71 -32 71 c -16 0 -38 68 -32 98 c 7 33 -16 86 -44 101 c -9 5 -68 12 -130 16 c -118 8 -136 1 -87 -31 c 15 -10 25 -26 25 -40 c 0 -14 7 -41 15 -61 c 8 -19 15 -39 15 -43 c 0 -4 -71 -11 -157 -14 c -87 -4 -168 -11 -180 -16 c -13 -5 -30 -7 -38 -4 c -11 4 -4 12 22 25 c 26 13 58 19 105 19 l 67 0 l 3 73 c 3 67 5 72 26 73 c 23 1 39 11 31 18 c -5 5 -187 10 -262 8 c -65 -2 -79 -17 -56 -58 c 11 -21 11 -27 0 -33 c -8 -5 -11 -17 -7 -29 c 4 -11 0 -39 -9 -63 c -21 -62 -20 -89 5 -89 c 11 0 23 -7 27 -16 c 3 -9 0 -75 -7 -147 c -8 -73 -14 -173 -15 -222 c -1 -50 -5 -97 -10 -105 c -4 -7 -12 -30 -16 -49 c -4 -20 -16 -81 -28 -136 c -27 -131 -27 -190 2 -237 c 24 -38 114 -118 133 -118 c 6 0 17 -7 24 -15 c 8 -9 30 -15 57 -15 c 24 0 56 -6 71 -13 c 15 -8 62 -14 104 -15 c 63 -1 81 -5 98 -22 c 22 -22 29 -24 49 -11 c 11 7 10 11 -4 19 c -23 13 -15 34 21 52 c 16 8 39 25 51 38 c 36 40 85 72 107 71 c 12 0 15 -3 8 -6 c -6 -2 -29 -22 -50 -42 c -20 -21 -52 -46 -69 -56 c -30 -17 -31 -21 -17 -36 c 13 -15 20 -15 58 -4 c 23 7 70 27 104 44 c 34 17 70 31 80 31 c 11 0 36 -16 56 -35 c 21 -19 44 -35 52 -35 c 8 0 49 -21 92 -48 c 42 -26 120 -65 172 -86 c 52 -21 110 -44 128 -52 c 18 -8 46 -14 63 -14 c 17 0 63 -16 103 -35 c 80 -38 93 -41 119 -21 c 27 21 20 52 -20 97 c -29 32 -41 39 -60 34 c -16 -4 -33 1 -50 15 c -15 11 -46 25 -69 31 c -23 6 -51 19 -61 29 c -11 9 -37 26 -59 36 c -111 52 -184 102 -252 169 c -78 80 -87 106 -57 165 c 20 38 34 38 71 -1 c 16 -17 59 -51 95 -74 c 36 -24 102 -72 147 -106 c 44 -35 111 -86 148 -114 c 36 -27 73 -60 82 -73 c 8 -13 19 -19 24 -14 c 17 17 68 -1 103 -37 c 42 -42 52 -73 36 -107 c -15 -34 -15 -35 17 -18 c 15 7 34 14 44 14 c 9 0 25 12 36 27 c 11 16 22 26 24 23 c 67 -90 88 -121 104 -147 c 10 -18 22 -33 26 -33 c 4 0 8 -6 8 -13 c 0 -21 46 -70 59 -63 c 15 10 14 83 -2 93 c -15 9 -54 159 -45 169 c 12 11 28 -7 28 -30 c 0 -41 69 -159 116 -198 c 38 -32 49 -36 65 -27 c 18 9 20 17 14 67 c -3 31 -9 69 -11 84 c -9 44 9 32 33 -22 c 18 -40 20 -56 12 -77 c -19 -51 25 -55 57 -5 c 13 20 17 45 16 95 c -1 38 0 73 4 78 c 3 6 20 -12 37 -40 c 33 -52 103 -131 115 -131 c 15 0 30 17 53 59 c 56 103 66 114 80 89 c 6 -10 19 -18 31 -18 c 16 0 19 5 14 24 c -10 41 23 114 46 100 c 15 -10 8 -90 -12 -128 c -10 -22 -17 -43 -14 -47 c 10 -17 42 -9 57 15 c 17 25 79 52 97 41 c 34 -21 101 64 114 144 c 3 24 11 52 17 63 c 9 17 13 15 39 -24 c 24 -34 30 -54 30 -97 c 0 -53 0 -53 28 -46 c 51 12 70 32 78 80 c 3 25 13 49 22 54 c 16 9 50 124 52 181 l 2 35 l 11 -40 c 7 -28 7 -51 -1 -82 c -13 -46 -14 -118 -3 -168 c 5 -25 11 -30 36 -30 c 29 0 30 1 41 80 c 12 79 28 132 58 190 c 11 20 16 24 16 12 c 0 -10 12 -29 27 -43 l 27 -25 l -13 -77 c -7 -42 -18 -83 -23 -90 c -14 -17 13 -16 57 2 c 32 14 35 19 35 55 c 0 50 26 57 41 11 c 7 -19 18 -30 30 -30 c 15 0 19 7 19 37 c 0 20 -7 45 -17 55 c -21 23 -31 164 -14 196 c 21 39 31 23 31 -46 c 0 -57 4 -74 25 -102 c 14 -19 25 -46 25 -61 c 0 -15 8 -37 18 -49 c 16 -20 21 -21 41 -11 c 20 11 22 18 18 61 c -3 26 -10 57 -16 68 c -13 25 -15 188 -2 196 c 5 3 17 -6 27 -21 c 12 -20 18 -49 18 -104 c 1 -48 6 -82 15 -92 c 21 -26 34 -9 27 38 c -5 32 -3 47 9 59 c 9 9 21 31 26 49 c 5 18 15 42 23 52 c 13 19 15 18 21 -16 c 4 -20 2 -54 -4 -75 c -6 -22 -11 -63 -11 -91 c 0 -48 2 -53 23 -53 c 29 0 83 33 98 61 c 7 14 10 45 6 83 c -7 78 7 244 21 258 c 19 19 42 -53 42 -127 c 0 -71 25 -165 44 -165 c 6 0 28 5 48 10 c 50 14 62 39 49 98 c -16 73 -24 222 -13 222 c 6 0 13 -14 17 -30 c 4 -16 10 -30 15 -30 c 17 0 40 32 40 57 c 0 14 9 36 20 50 c 11 14 20 35 20 47 c 0 11 4 27 9 34 c 7 11 10 10 15 -3 c 13 -34 5 -107 -19 -191 c -30 -105 -33 -174 -7 -173 c 31 1 77 35 93 68 c 18 39 39 54 55 40 c 17 -14 75 16 81 42 c 3 10 11 19 17 19 c 31 0 50 28 51 76 c 0 54 19 70 28 24 c 9 -44 35 -49 67 -14 c 14 16 42 37 62 47 c 23 12 42 33 54 59 c 13 30 22 38 37 34 c 24 -6 53 23 62 63 c 5 22 12 31 26 31 c 35 0 57 19 74 63 c 12 32 22 43 37 43 c 11 -1 30 11 41 27 c 19 25 20 30 8 60 c -8 17 -17 78 -21 134 c -4 55 -11 106 -14 112 c -4 6 -11 32 -16 59 c -5 26 -14 72 -20 102 c -7 33 -9 77 -4 110 l 7 55 l 13 -50 c 7 -27 22 -77 33 -110 c 28 -84 38 -140 52 -287 c 7 -71 16 -128 20 -128 c 13 0 49 57 49 78 c 0 26 26 52 52 52 c 14 0 24 12 35 40 c 9 22 24 42 35 46 c 43 13 53 49 50 183 c -2 69 -9 149 -16 176 c -42 157 -44 205 -7 186 c 26 -14 59 -125 66 -221 c 7 -88 21 -150 34 -150 c 21 0 44 44 48 92 c 2 29 8 69 14 88 c 5 19 9 56 9 82 c 0 25 3 53 6 62 c 9 23 32 20 40 -6 c 6 -21 7 -21 20 -3 c 8 10 14 28 14 38 c 0 16 3 17 15 7 c 13 -11 15 -8 15 13 c 0 14 -4 29 -10 32 c -5 3 -9 16 -8 28 c 2 35 -21 140 -33 152 c -8 7 -10 -8 -7 -51 c 2 -45 0 -60 -9 -57 c -18 7 -43 103 -43 165 c 0 29 -7 75 -15 101 c -13 42 -13 49 1 54 c 20 7 54 -25 54 -52 c 0 -13 11 -47 24 -77 c 20 -44 33 -60 67 -77 c 23 -12 45 -19 49 -14 c 12 13 -1 82 -14 77 c -18 -7 -71 105 -57 119 c 6 6 11 24 11 40 c 0 36 28 34 47 -3 c 12 -24 13 -23 13 19 c 0 37 -2 42 -15 31 c -12 -10 -15 -9 -15 4 c 0 9 -7 31 -16 47 c -18 36 -12 68 10 50 c 10 -9 16 -7 26 4 c 11 13 11 29 1 84 c -7 37 -12 116 -13 177 c 0 107 -24 224 -49 239 c -15 10 -10 34 10 54 c 18 18 19 23 5 67 c -8 26 -21 58 -29 71 c -8 12 -15 33 -15 45 c 1 84 -3 115 -16 152 c -8 22 -19 64 -24 91 c -15 87 -22 109 -45 160 c -12 28 -25 67 -28 88 c -3 21 -20 60 -36 88 c -18 28 -31 63 -31 82 c 0 38 -49 144 -79 171 c -11 11 -21 27 -21 37 c 0 10 -5 21 -11 25 c -6 3 -9 19 -7 35 c 4 26 1 29 -36 37 c -38 7 -41 10 -38 37 c 6 69 4 92 -6 130 c -6 22 -18 49 -26 60 c -13 18 -15 18 -40 -11 c -15 -16 -39 -53 -53 -83 c -30 -61 -70 -86 -110 -68 c -19 8 -32 6 -67 -11 c -48 -24 -77 -27 -107 -12 c -23 13 -26 50 -3 50 c 9 0 32 10 51 21 c 32 20 34 23 17 32 c -11 6 -48 11 -84 11 c -51 0 -78 -7 -124 -29 c -66 -31 -142 -38 -156 -14 c -12 18 -5 23 49 38 c 25 7 56 18 70 24 c 14 6 53 16 86 22 c 53 9 69 8 135 -12 c 82 -25 110 -28 110 -13 c 0 20 -114 65 -160 63 c -130 -6 -240 -21 -290 -41 c -65 -26 -148 -30 -156 -7 c -4 8 -12 15 -19 15 c -18 0 -25 23 -11 40 c 6 8 57 46 112 84 c 125 84 195 106 335 106 c 76 0 99 -3 110 -16 c 9 -11 23 -14 46 -11 c 18 3 35 1 39 -4 c 3 -6 16 -15 28 -20 c 15 -7 7 -8 -28 -3 c -32 4 -46 2 -42 -5 c 11 -17 131 -81 153 -81 c 18 0 20 7 20 58 c 1 67 -8 88 -39 95 c -27 6 -100 33 -143 52 c -59 26 -125 35 -247 34 c -108 0 -134 -4 -210 -29 z m -1083 -436 c 39 -3 79 -9 90 -14 c 11 -5 72 -21 135 -35 c 63 -15 142 -40 175 -55 c 33 -15 71 -31 84 -35 c 24 -7 116 -68 136 -89 c 6 -6 28 -24 50 -40 c 65 -48 69 -61 23 -70 c -17 -3 -29 -8 -26 -11 c 3 -3 44 -13 92 -23 c 48 -10 88 -22 89 -28 c 1 -5 -23 -10 -53 -12 c -60 -3 -96 -22 -43 -22 c 17 0 63 -15 103 -34 c 56 -27 68 -36 55 -44 c -15 -8 -14 -11 8 -25 c 22 -14 27 -14 46 -1 c 16 11 25 12 41 4 c 23 -12 26 -26 8 -33 c -8 -3 20 -35 66 -79 c 44 -41 76 -79 73 -85 c -4 -6 4 -21 16 -34 c 29 -30 77 -94 77 -102 c 0 -4 -13 -7 -30 -7 c -20 0 -30 -5 -30 -15 c 0 -16 66 -94 108 -128 c 26 -22 29 -39 5 -30 c -10 4 -20 9 -23 12 c -12 14 -92 52 -98 47 c -3 -3 0 -6 6 -6 c 7 0 12 -5 12 -11 c 0 -5 15 -24 34 -42 c 36 -35 86 -117 86 -144 c 0 -9 9 -26 20 -38 c 22 -23 38 -85 22 -85 c -5 0 -15 7 -22 15 c -14 17 -78 50 -85 43 c -2 -2 16 -31 41 -63 c 51 -67 76 -120 72 -148 c -3 -18 -5 -17 -30 6 c -29 27 -36 19 -19 -25 c 20 -55 22 -78 6 -78 c -13 0 -18 -12 -29 -71 c -2 -9 3 -27 10 -40 c 7 -13 13 -27 14 -31 c 0 -18 -44 -4 -89 29 c -2 2 4 12 14 23 c 18 20 18 22 -5 67 c -43 87 -103 166 -186 248 c -46 45 -84 85 -84 90 c 0 4 13 5 30 2 c 16 -4 32 -2 35 2 c 6 11 -46 56 -96 81 c -21 11 -54 31 -75 45 c -39 26 -69 32 -79 15 c -4 -6 -1 -17 5 -25 c 9 -11 9 -15 1 -15 c -6 0 -11 -11 -11 -25 c 0 -30 -9 -31 -36 -6 c -25 23 -58 41 -95 51 c -27 8 -28 7 -18 -11 c 6 -11 18 -23 27 -26 c 9 -3 32 -17 50 -31 c 27 -19 32 -29 28 -48 c -5 -17 0 -30 15 -45 c 12 -12 23 -35 24 -51 c 3 -29 -9 -38 -18 -14 c -3 8 -22 22 -42 31 c -20 10 -38 27 -41 39 c -6 24 -51 56 -79 56 c -29 0 -11 -24 33 -45 c 23 -11 42 -23 42 -28 c 0 -11 121 -127 132 -127 c 5 0 0 -10 -11 -22 c -18 -18 -24 -20 -46 -10 c -28 13 -34 5 -9 -13 c 17 -12 33 -105 18 -105 c -5 0 -31 21 -58 45 c -71 65 -135 105 -167 105 c -16 0 -32 6 -36 13 c -19 29 -110 54 -129 35 c -12 -13 28 -68 74 -102 c 27 -20 68 -58 92 -86 c 38 -45 70 -64 70 -41 c 0 5 -29 39 -65 77 c -36 38 -65 72 -65 75 c 0 3 15 6 33 5 c 26 -1 44 -13 93 -63 c 33 -34 70 -82 82 -107 c 12 -24 29 -49 37 -56 c 8 -7 15 -16 15 -21 c 0 -13 86 -150 115 -183 c 39 -45 42 -22 7 44 c -18 32 -32 62 -32 65 c 0 15 44 -21 62 -51 c 11 -19 26 -34 34 -34 c 18 0 18 3 -7 51 c -20 40 -20 69 1 69 c 6 0 13 -8 17 -17 c 8 -23 43 -57 50 -49 c 3 3 -2 23 -10 44 c -22 55 -33 157 -17 167 c 19 12 58 -33 98 -114 c 20 -42 51 -97 69 -123 c 28 -40 33 -57 33 -103 c 0 -46 -3 -55 -17 -55 c -10 0 -28 18 -41 40 c -12 22 -26 40 -30 40 c -11 0 -33 -71 -36 -118 c -2 -23 -6 -45 -9 -48 c -4 -4 -23 10 -43 30 c -20 20 -43 35 -50 32 c -16 -6 -19 -99 -5 -158 c 5 -21 7 -38 4 -38 c -10 0 -33 30 -33 43 c 0 8 -7 20 -15 27 c -8 7 -15 18 -15 24 c 0 6 -10 20 -22 30 l -21 18 l 7 -121 c 3 -66 4 -121 2 -121 c -3 0 -12 17 -21 38 c -9 20 -30 64 -46 97 c -16 33 -29 66 -29 73 c 0 6 -4 12 -10 12 c -5 0 -10 -22 -10 -50 c 0 -51 8 -91 42 -220 c 11 -41 22 -86 25 -100 l 4 -25 l -14 25 c -25 41 -57 112 -73 162 c -9 26 -24 54 -34 63 c -17 15 -18 13 -25 -54 c -4 -38 -13 -78 -20 -88 c -13 -17 -14 -17 -28 1 c -12 17 -14 17 -30 1 c -12 -11 -17 -33 -17 -70 c 0 -30 -4 -56 -9 -59 c -4 -3 -19 36 -33 86 l -24 91 l -17 -35 c -9 -20 -17 -50 -17 -66 c 0 -50 -18 -46 -26 5 c -8 52 -9 51 -19 -19 c -6 -45 -25 -68 -25 -31 c 0 9 -6 44 -14 77 c -39 169 -40 177 -27 198 c 10 16 7 29 -18 80 c -17 34 -48 84 -68 112 c -21 28 -43 60 -50 71 c -35 59 -67 123 -74 150 c -15 60 -53 160 -63 167 c -19 13 2 20 23 8 c 22 -11 41 -6 41 12 c 0 5 -13 27 -30 48 c -23 29 -27 39 -16 43 c 8 3 25 -10 42 -31 c 15 -20 63 -72 106 -114 c 43 -43 78 -84 78 -93 c 0 -8 5 -15 10 -15 c 6 0 10 -5 10 -11 c 0 -14 58 -75 65 -68 c 3 3 -6 18 -20 33 c -24 26 -45 59 -45 71 c 0 3 17 3 38 -1 l 37 -7 l -30 24 c -73 56 -225 192 -225 200 c 0 17 -34 46 -62 53 c -16 3 -28 11 -28 16 c 0 6 -16 28 -36 50 c -33 36 -34 40 -15 40 c 12 0 29 -4 39 -9 c 9 -6 29 -12 44 -16 c 18 -3 30 -14 33 -28 c 5 -20 64 -71 72 -63 c 2 2 -4 17 -14 35 c -15 27 -16 33 -4 40 c 17 11 49 -9 102 -62 c 19 -19 66 -55 104 -80 c 39 -26 78 -54 88 -63 c 10 -8 21 -13 25 -10 c 6 7 -97 116 -110 116 c -10 0 -144 95 -177 126 c -14 13 -33 24 -41 24 c -30 0 -136 81 -123 94 c 15 15 60 3 137 -38 c 82 -44 149 -62 197 -54 c 22 4 23 5 4 12 c -59 23 -95 40 -95 46 c 0 3 -45 32 -100 65 c -102 59 -131 94 -67 81 c 17 -4 50 -10 72 -13 c 22 -3 44 -9 49 -14 c 6 -5 24 -9 42 -9 c 17 0 48 -7 67 -15 c 23 -9 38 -11 42 -5 c 3 6 -4 15 -17 20 c -13 5 -30 14 -38 18 c -46 26 -63 32 -94 32 c -19 0 -41 6 -48 13 c -7 8 -20 16 -28 20 c -8 3 17 3 55 1 l 70 -5 l -55 29 c -30 15 -64 33 -75 39 c -11 6 -36 17 -55 25 l -34 15 l 24 13 c 27 15 120 17 184 5 c 28 -5 37 -4 32 4 c -4 6 -16 11 -27 11 c -10 0 -19 4 -19 9 c 0 5 -13 12 -29 16 c -16 3 -38 16 -49 28 c -69 74 -95 97 -110 97 c -10 0 -26 6 -37 14 c -11 7 -35 17 -53 21 c -17 3 -50 22 -73 41 c -22 19 -43 34 -45 34 c -2 0 -22 -7 -43 -16 c -22 -9 -46 -14 -53 -11 c -8 4 -7 6 5 6 c 9 1 17 5 17 11 c 0 11 64 40 90 40 c 17 0 112 -58 118 -72 c 12 -27 104 -49 117 -28 c 3 6 22 10 41 10 c 19 0 34 5 34 10 c 0 6 -30 10 -67 11 c -76 1 -115 9 -120 25 c -2 6 33 32 79 59 c 73 42 117 78 118 96 c 0 11 -101 47 -165 59 c -90 18 -94 20 -60 36 c 17 7 25 13 19 14 c -6 0 -28 14 -49 30 c -34 27 -45 30 -107 30 c -65 0 -95 -9 -126 -38 c -10 -9 -25 -11 -46 -6 c -66 16 -81 12 -84 -23 c -2 -23 -13 -39 -40 -60 c -82 -61 -99 -90 -87 -149 c 5 -27 11 -34 28 -34 c 25 0 47 -17 47 -37 c 0 -9 -13 -10 -50 -6 c -34 4 -50 2 -50 -6 c 0 -6 4 -11 10 -11 c 21 0 139 -62 171 -90 c 96 -83 113 -102 102 -107 c -7 -2 -13 -13 -13 -24 c 0 -19 26 -68 43 -80 c 5 -3 8 -19 6 -35 c -4 -52 1 -61 36 -78 c 34 -16 52 -52 20 -40 c -10 4 -15 0 -15 -14 c 0 -11 6 -22 14 -25 c 8 -3 17 -18 20 -34 c 4 -16 20 -44 37 -63 c 46 -54 61 -91 96 -240 c 3 -14 11 -28 18 -32 c 7 -4 18 -27 26 -51 c 7 -26 21 -47 33 -53 c 12 -5 32 -31 46 -59 c 21 -41 25 -64 24 -127 c -2 -114 -11 -126 -37 -46 c -12 37 -26 70 -30 74 c -10 10 -9 42 2 46 c 6 2 6 18 2 38 l -8 35 l -8 -37 c -9 -47 -19 -48 -33 -5 l -10 32 l -1 -32 c -1 -30 7 -56 33 -112 c 15 -33 13 -578 -3 -594 c -6 -6 -11 -25 -11 -41 c 0 -17 -4 -37 -9 -45 c -7 -11 -11 -4 -16 25 c -3 21 -8 49 -11 62 c -3 15 0 22 11 22 c 8 0 17 11 21 25 c 8 33 -2 339 -14 442 c -18 142 -130 424 -184 461 c -14 10 -18 21 -14 38 c 5 18 3 22 -9 18 c -10 -4 -15 0 -15 14 c 0 11 6 22 13 25 c 17 5 -29 70 -120 170 c -40 43 -73 84 -73 91 c 0 19 -142 162 -168 168 c -12 4 -22 4 -22 1 c 0 -2 35 -40 78 -84 c 49 -50 83 -96 93 -123 c 9 -23 35 -66 57 -95 c 23 -29 42 -57 42 -63 c 0 -5 13 -28 28 -51 c 85 -124 142 -293 142 -421 c 0 -46 3 -57 14 -53 c 20 8 26 -14 26 -89 c 0 -41 -4 -63 -10 -59 c -5 3 -10 22 -10 41 c 0 38 -16 45 -29 12 c -16 -43 -26 5 -27 132 c -1 142 -10 204 -30 221 c -8 6 -14 18 -14 27 c 0 8 -11 29 -24 46 c -13 17 -26 42 -31 56 c -10 34 -82 148 -119 188 c -17 19 -50 47 -73 63 c -39 27 -43 28 -43 10 c 0 -10 4 -21 9 -23 c 4 -1 32 -41 61 -88 c 29 -47 57 -86 61 -88 c 5 -2 9 -8 9 -13 c 0 -5 13 -27 29 -50 c 17 -22 32 -46 35 -52 c 5 -9 7 -9 12 1 c 12 25 23 11 17 -23 c -4 -23 -2 -35 6 -35 c 8 0 10 -11 5 -36 c -6 -31 -4 -36 15 -41 c 12 -3 20 -11 17 -18 c -2 -7 -1 -28 3 -47 c 4 -18 4 -42 0 -53 c -7 -19 -8 -19 -8 2 c -1 13 -10 28 -21 35 c -11 7 -20 20 -20 30 c 0 9 -16 48 -35 87 c -19 38 -35 72 -35 76 c 0 3 -14 20 -30 38 c -17 18 -46 55 -64 82 c -41 59 -103 121 -113 112 c -3 -4 3 -24 14 -45 c 11 -20 38 -71 60 -112 c 23 -41 44 -90 48 -107 c 4 -18 10 -33 14 -33 c 3 0 5 -18 3 -41 c -4 -38 -5 -39 -23 -23 c -20 18 -129 228 -129 249 c 0 8 -7 11 -20 8 c -11 -3 -20 0 -20 6 c 0 6 -4 11 -9 11 c -19 0 -17 -41 5 -106 c 25 -69 32 -158 14 -169 c -17 -11 -11 -46 19 -110 c 47 -99 79 -95 67 7 c -12 98 -11 121 1 125 c 7 3 16 -4 19 -14 c 3 -10 15 -39 25 -66 c 13 -31 19 -65 17 -99 c -3 -46 0 -53 20 -64 c 54 -27 95 -112 90 -186 c -3 -49 -20 -54 -28 -9 c -6 33 -30 54 -114 96 c -32 17 -69 44 -82 60 c -45 56 -90 95 -110 95 c -11 0 -14 8 -12 27 c 2 15 -2 28 -9 30 c -7 3 -13 -2 -13 -11 c 0 -20 -7 -20 -25 -2 c -12 12 -12 15 1 20 c 13 5 14 9 4 21 c -9 11 -8 26 5 69 c 13 39 14 59 7 73 c -10 17 -11 16 -20 -7 l -9 -25 l -7 23 c -10 31 -26 24 -40 -19 c -12 -33 -48 -79 -63 -79 c -3 0 -14 7 -24 16 c -10 9 -25 14 -34 11 c -18 -7 -21 -57 -3 -57 c 9 0 9 -3 0 -12 c -9 -9 -20 -7 -47 8 c -19 10 -35 24 -35 31 c 0 26 51 93 94 125 c 49 36 53 51 15 56 c -18 2 -37 -11 -74 -48 c -62 -62 -88 -77 -145 -81 c -43 -4 -45 -3 -48 24 c -3 27 -4 28 -17 10 c -8 -10 -15 -25 -15 -33 c 0 -8 -9 -34 -20 -58 c -17 -38 -22 -42 -40 -32 c -12 7 -20 21 -20 38 c 0 29 -20 64 -60 103 l -25 24 l 35 3 c 38 4 70 -23 70 -59 c 0 -35 18 -28 24 10 c 6 38 6 38 53 38 c 76 -1 149 18 187 46 c 19 15 39 27 45 27 c 6 0 11 3 11 8 c 0 4 16 25 35 47 c 19 22 35 47 35 55 c 1 8 9 40 20 70 c 24 67 25 161 4 249 c -8 36 -17 76 -20 88 c -7 34 -129 149 -165 157 c -17 3 -63 3 -102 -1 c -56 -5 -74 -11 -90 -30 c -11 -12 -25 -23 -29 -23 c -5 0 -24 -10 -41 -23 c -18 -13 -52 -30 -77 -37 c -30 -9 -62 -31 -96 -65 c -62 -63 -84 -71 -269 -111 c -44 -9 -106 -25 -137 -35 c -76 -25 -85 -24 -93 11 c -4 18 -18 37 -36 47 c -26 15 -30 22 -25 48 c 6 29 15 39 87 94 c 25 19 33 21 39 10 c 6 -9 36 -14 102 -15 c 156 -4 167 -6 197 -42 c 14 -18 31 -32 37 -32 c 16 0 111 65 152 103 c 17 17 32 41 32 53 c 0 12 10 28 23 37 c 22 14 22 15 3 36 l -19 21 l -22 -24 c -16 -17 -26 -21 -38 -14 c -12 6 -33 0 -73 -22 c -32 -17 -58 -29 -60 -27 c -3 3 18 139 23 146 c 1 2 14 -4 28 -13 c 21 -14 25 -14 25 -2 c 0 8 -4 18 -10 21 c -5 3 -10 10 -10 16 c 0 19 34 8 80 -26 c 58 -43 70 -44 70 -6 c 0 16 7 34 15 41 c 17 14 20 46 5 55 c -5 3 -7 12 -4 20 c 4 9 -2 18 -12 22 c -11 3 -35 17 -55 29 c -20 12 -53 26 -73 29 c -20 4 -47 16 -60 26 c -26 21 -46 25 -46 9 c 0 -5 5 -10 10 -10 c 6 0 10 -7 10 -15 c 0 -12 -16 -15 -85 -15 c -47 0 -93 -4 -103 -9 c -9 -5 -38 -18 -63 -28 c -55 -22 -92 -47 -128 -88 c -14 -16 -36 -40 -49 -52 c -12 -13 -22 -28 -22 -33 c 0 -5 -5 -12 -11 -16 c -9 -5 -10 3 -5 30 c 5 24 3 36 -4 36 c -13 0 -49 -39 -50 -53 c 0 -16 -53 -123 -76 -154 c -13 -17 -29 -56 -35 -85 c -6 -29 -17 -81 -26 -115 c -13 -56 -13 -64 1 -85 c 22 -30 20 -51 -5 -74 c -55 -50 -77 -114 -26 -79 c 27 19 37 19 37 0 c 0 -27 -30 -75 -46 -75 c -8 0 -48 -34 -89 -75 c -69 -71 -95 -88 -95 -65 c 0 10 25 68 81 186 c 32 67 28 74 -41 72 c -33 -1 -63 1 -66 5 c -13 13 112 123 179 156 c 25 12 31 22 29 40 c -4 34 -7 36 -32 11 c -12 -12 -24 -19 -28 -16 c -10 11 21 57 35 52 c 14 -6 22 10 44 84 c 7 25 28 62 46 83 c 18 20 33 46 33 57 c 0 12 7 32 16 45 c 10 16 14 36 11 54 c -5 24 1 34 41 72 c 42 40 66 57 112 80 c 8 4 53 26 100 49 c 92 45 126 72 116 89 c -12 18 -41 12 -82 -16 c -69 -48 -209 -122 -231 -123 c -7 0 -18 -9 -25 -20 c -13 -21 -48 -28 -48 -9 c 0 16 82 88 101 89 c 9 0 23 8 33 18 c 9 11 35 24 57 31 c 25 8 38 17 35 24 c -3 7 -9 19 -12 28 c -7 20 -56 49 -83 49 c -11 0 -30 -4 -43 -9 c -49 -19 -106 -33 -118 -29 c -7 2 10 18 37 36 c 28 18 58 41 68 52 c 10 11 28 20 39 20 c 12 0 31 6 42 14 c 11 8 46 16 79 18 c 33 3 86 12 118 21 c 32 10 65 17 74 17 c 9 0 25 7 35 17 c 15 13 23 14 44 5 c 30 -14 74 -6 74 14 c 0 8 -17 22 -37 32 c -21 9 -40 19 -43 22 c -3 3 -16 6 -30 7 c -49 4 -95 16 -117 31 c -34 21 -29 36 10 27 c 17 -4 82 -7 144 -7 c 86 1 126 6 175 23 c 35 12 92 29 128 39 c 286 77 346 90 403 90 c 34 0 101 5 147 11 c 126 16 425 16 445 -1 c 25 -20 10 -24 -78 -21 c -46 1 -119 -2 -162 -8 c -44 -6 -121 -13 -171 -15 c -50 -3 -115 -8 -144 -12 c -51 -7 -52 -7 -28 -20 c 61 -32 337 -42 389 -14 c 9 5 58 12 110 16 c 52 4 101 12 109 19 c 16 13 141 69 175 78 c 11 3 40 4 65 1 c 25 -2 77 -7 115 -10 z m 1717 -126 c 14 -22 18 -22 52 -10 c 32 12 40 12 61 -2 c 14 -9 25 -21 25 -27 c 0 -12 -50 -81 -66 -91 c -6 -4 -24 -26 -40 -50 c -77 -115 -114 -156 -168 -184 c -30 -16 -58 -26 -61 -22 c -4 4 11 28 33 55 c 22 26 49 66 60 88 c 37 73 80 123 116 136 c 45 16 46 37 4 41 c -25 3 -43 -4 -73 -28 c -55 -42 -58 -43 -109 -53 c -35 -6 -46 -5 -46 4 c 0 19 50 65 107 97 c 29 16 55 38 58 49 c 8 25 29 24 47 -3 z m 45 -339 c -71 -96 -103 -132 -141 -158 c -41 -28 -96 -42 -96 -23 c 0 4 45 49 100 101 c 55 51 100 99 100 106 c 0 20 24 24 37 7 c 10 -13 10 -19 0 -33 z m 119 -494 c 56 -30 73 -50 74 -88 c 0 -21 -6 -30 -20 -34 c -11 -3 -20 -14 -20 -24 c 0 -23 -16 -24 -61 -3 c -112 51 -123 88 -14 49 c 81 -30 85 -15 15 55 c -74 74 -63 92 26 45 z m -3032 -193 c 22 -43 17 -73 -14 -91 c -24 -13 -28 -12 -52 10 c -37 35 -126 78 -175 85 c -41 6 -42 7 -27 29 c 8 13 30 30 47 39 c 18 8 48 26 67 39 l 35 25 l 51 -52 c 28 -28 59 -66 68 -84 z m -1268 22 c 19 5 24 2 24 -13 c 0 -25 -93 -127 -123 -135 c -13 -3 -38 -24 -56 -46 c -44 -55 -65 -55 -46 1 c 14 38 31 59 75 93 c 25 18 90 102 91 117 c 1 8 3 6 6 -4 c 4 -14 11 -17 29 -13 z m 992 -109 c 16 -34 15 -70 0 -37 c -13 26 -18 27 -43 8 c -18 -13 -17 -14 7 -47 c 60 -80 96 -169 68 -169 c -5 0 -10 6 -10 12 c 0 7 -32 43 -71 80 c -62 59 -72 65 -76 47 c -5 -17 -12 -20 -62 -17 c -41 2 -57 7 -59 19 c -2 11 12 19 48 28 c 27 7 50 16 50 20 c 0 4 15 24 34 44 c 26 29 41 37 68 37 c 28 0 37 -5 46 -25 z m 3274 -29 c 14 -8 49 -19 77 -25 c 58 -12 125 -42 160 -72 c 38 -31 17 -34 -42 -5 c -30 14 -61 26 -70 26 c -8 0 -17 6 -20 13 c -2 6 -7 10 -10 7 c -9 -8 14 -33 88 -93 c 91 -75 114 -98 121 -120 c 16 -52 -40 -30 -118 45 c -36 35 -104 97 -151 138 c -82 70 -104 100 -74 100 c 6 0 24 -6 39 -14 z m -875 -48 c 78 -71 83 -77 118 -136 c 18 -31 42 -66 52 -77 c 10 -11 25 -34 32 -52 c 7 -18 19 -38 27 -44 c 19 -15 18 -33 -1 -25 c -27 10 -27 -19 -2 -80 c 57 -137 39 -141 -56 -11 c -37 50 -90 120 -118 155 c -51 63 -69 119 -41 129 c 6 3 12 0 12 -6 c 0 -16 94 -130 103 -124 c 7 4 -20 62 -35 73 c -4 3 -19 31 -33 62 c -14 31 -32 62 -40 68 c -8 7 -15 18 -15 24 c 0 6 -16 28 -36 49 c -50 51 -24 47 33 -5 z m -3213 -256 c 3 -5 -2 -21 -10 -36 c -7 -16 -14 -35 -14 -42 c 0 -8 -3 -14 -7 -14 c -5 0 -15 -13 -24 -29 c -10 -16 -32 -36 -50 -45 c -19 -9 -42 -27 -51 -40 c -32 -44 -118 -209 -118 -226 c 0 -9 -9 -34 -20 -56 l -19 -39 l 0 35 c -1 64 61 205 144 330 c 25 37 45 71 45 76 c 0 5 19 28 42 51 c 40 40 70 53 82 35 z m 4296 -24 c 50 -27 85 -82 98 -156 c 14 -81 -7 -77 -74 13 c -16 22 -35 47 -43 56 c -26 32 -44 109 -26 109 c 2 0 22 -10 45 -22 z m -4271 -143 c 1 -34 21 -74 21 -42 c 0 9 4 17 8 17 c 16 0 60 -56 64 -80 c 2 -18 9 -25 22 -23 c 34 3 45 -26 45 -110 c -1 -57 3 -83 14 -95 c 9 -9 19 -30 23 -45 c 3 -16 20 -55 35 -88 c 43 -89 70 -167 80 -233 c 5 -32 16 -79 25 -105 c 9 -25 20 -72 24 -103 c 5 -33 18 -70 31 -88 c 20 -27 24 -43 24 -118 c 0 -65 -5 -97 -19 -127 c -11 -22 -21 -33 -22 -25 c -1 8 -8 62 -14 120 c -7 58 -18 115 -26 127 c -8 12 -14 30 -14 40 c 0 26 -36 135 -65 198 c -14 31 -25 58 -25 61 c 0 3 -8 17 -19 32 c -10 15 -24 54 -30 87 c -7 33 -19 73 -27 88 c -8 16 -14 36 -14 46 c 0 9 -4 21 -9 27 c -9 9 -13 35 -31 188 c -9 83 -20 126 -20 79 c 0 -11 -7 -26 -15 -33 c -8 -7 -15 -19 -15 -27 c 0 -8 -9 -33 -19 -56 c -10 -23 -33 -76 -50 -117 c -36 -85 -57 -120 -71 -120 c -20 0 -9 61 24 132 c 51 109 66 154 66 197 c 0 55 -9 56 -36 3 c -23 -45 -106 -132 -125 -132 c -12 0 -11 17 1 25 c 6 3 10 15 10 27 c 0 11 18 53 40 92 c 78 137 80 141 80 180 c 0 19 3 42 7 52 c 6 16 7 16 14 -2 c 4 -10 8 -32 8 -49 z m 2341 -345 c 13 0 27 -61 35 -146 c 4 -40 14 -85 22 -100 c 15 -29 19 -148 7 -186 c -13 -43 -31 -8 -52 102 l -9 45 l -8 -63 c -5 -43 -13 -66 -25 -72 c -15 -8 -18 -1 -24 61 c -7 77 -2 94 29 94 c 19 0 20 6 17 115 c -1 63 -4 131 -6 150 c -3 19 -2 27 0 18 c 3 -10 9 -18 14 -18 z m -350 -132 c 0 -86 -4 -108 -24 -152 c -14 -28 -48 -114 -77 -191 c -28 -77 -69 -175 -90 -218 c -22 -43 -39 -82 -39 -88 c 0 -25 -74 -122 -163 -214 c -53 -55 -97 -104 -97 -110 c 0 -5 -21 -24 -48 -41 c -95 -62 -151 -77 -282 -78 c -96 -1 -110 2 -161 27 c -91 47 -219 180 -195 204 c 4 4 10 3 14 -3 c 4 -6 48 -39 98 -72 c 84 -57 95 -62 146 -62 c 79 0 178 12 178 21 c 0 15 -42 22 -50 8 c -11 -17 -85 4 -94 26 c -3 8 -14 15 -25 15 c -15 0 -21 9 -26 38 c -3 20 -10 53 -15 73 c -13 46 -12 90 0 109 c 7 12 10 8 10 -15 c 0 -17 10 -46 23 -65 c 13 -19 32 -56 43 -82 c 17 -43 22 -48 51 -48 c 17 0 35 5 38 10 c 3 6 40 10 81 10 c 62 0 81 4 114 25 c 22 14 42 25 45 25 c 4 0 25 13 48 29 c 66 46 150 133 210 218 c 53 76 147 256 147 283 c 0 7 6 21 14 29 c 16 19 43 101 52 162 c 4 24 13 49 19 54 c 7 6 18 49 25 97 c 6 49 16 85 21 82 c 5 -3 9 -51 9 -106 z m -1440 35 c 0 -3 -9 -16 -20 -30 c -17 -22 -20 -41 -20 -132 c 1 -58 7 -132 15 -164 c 7 -32 11 -73 8 -92 c -3 -22 0 -41 11 -56 c 9 -13 16 -32 16 -42 c 0 -10 11 -42 24 -70 c 13 -29 27 -65 31 -81 c 5 -23 9 -26 15 -16 c 5 8 10 12 12 10 c 23 -32 59 -91 69 -112 c 7 -16 17 -28 23 -28 c 13 -1 48 -73 71 -145 c 9 -27 25 -62 35 -77 c 11 -15 20 -31 20 -37 c 0 -5 3 -11 8 -13 c 4 -1 19 -21 33 -43 c 39 -59 129 -155 145 -155 c 8 0 22 -4 32 -10 c 66 -36 264 -54 276 -24 c 3 8 14 14 25 14 c 23 0 96 28 151 59 c 51 28 80 41 92 41 c 8 0 23 8 34 18 c 18 17 80 66 175 137 c 49 37 99 103 99 131 c 0 21 38 84 51 84 c 5 0 9 9 9 21 c 0 12 5 19 13 16 c 22 -8 9 -106 -25 -174 c -16 -34 -36 -64 -44 -67 c -8 -3 -14 -18 -14 -33 c 0 -15 -5 -35 -10 -43 c -8 -13 -11 -12 -24 5 c -15 20 -15 20 -21 0 c -15 -45 -29 -65 -46 -65 c -10 0 -26 -11 -35 -25 c -9 -14 -25 -25 -35 -25 c -11 0 -37 -11 -59 -25 c -23 -15 -42 -21 -45 -15 c -9 15 -27 1 -21 -16 c 3 -8 -1 -14 -8 -14 c -7 0 -19 -7 -26 -15 c -7 -9 -19 -14 -26 -11 c -7 3 -15 -2 -18 -10 c -7 -19 -26 -18 -26 3 c 0 15 -2 15 -17 0 c -10 -8 -36 -18 -58 -22 c -22 -4 -56 -12 -75 -18 c -41 -12 -44 -13 -176 -22 c -101 -8 -102 -8 -143 21 c -22 16 -41 34 -41 41 c 0 7 -9 17 -20 23 c -23 13 -137 153 -154 190 c -6 14 -34 60 -63 103 c -29 43 -53 84 -53 91 c 0 8 -7 19 -15 26 c -8 7 -15 20 -15 30 c 0 9 -9 25 -19 34 c -11 10 -25 31 -31 47 c -7 16 -18 29 -24 29 c -12 0 -126 208 -126 230 c 0 6 -20 42 -45 80 c -66 101 -58 118 22 53 l 46 -38 l -6 30 c -23 118 -33 212 -31 285 c 2 47 4 90 4 95 c 0 13 41 32 58 27 c 6 -2 12 -6 12 -9 z m 1950 -134 c 18 -51 21 -78 17 -134 c -6 -75 -22 -131 -30 -105 c -21 70 -37 160 -38 217 c -1 37 -4 79 -8 93 c -4 14 -5 34 -3 44 c 4 16 8 13 23 -16 c 10 -19 27 -63 39 -99 z m -766 -107 c -15 -34 -34 -64 -41 -67 c -19 -7 -73 22 -73 40 c 0 8 4 24 9 37 c 5 13 12 34 15 48 c 3 14 15 30 27 35 c 12 6 36 38 53 72 l 31 62 l 3 -83 c 2 -72 -1 -91 -24 -144 z m -919 -142 c 8 -16 15 -49 15 -73 c 0 -25 7 -64 16 -88 c 8 -24 15 -69 15 -99 c 0 -53 10 -94 44 -173 c 21 -50 15 -67 -13 -37 c -30 32 -53 103 -62 190 c -4 41 -13 93 -19 115 c -26 97 -34 195 -15 195 c 2 0 10 -13 19 -30 z m 1000 -382 c -4 -16 -1 -42 5 -59 c 17 -39 -6 -74 -53 -83 c -19 -3 -46 -19 -60 -34 c -36 -39 -65 -64 -122 -107 c -28 -21 -54 -44 -58 -52 c -4 -7 -15 -13 -23 -13 c -8 0 -12 -4 -9 -10 c 8 -13 48 -13 62 1 c 6 6 26 14 45 18 c 26 5 35 13 42 38 c 7 23 17 33 38 37 c 20 4 26 10 21 21 c -4 12 -1 15 10 13 c 15 -3 87 66 87 83 c 0 5 8 9 18 9 c 9 0 32 14 50 31 c 36 34 52 31 52 -11 c 0 -22 -12 -40 -46 -72 c -44 -41 -179 -131 -216 -144 c -10 -4 -18 -10 -18 -15 c 0 -5 -6 -9 -14 -9 c -7 0 -27 -7 -42 -15 c -16 -8 -43 -15 -60 -15 c -17 0 -64 -11 -104 -25 c -46 -16 -119 -29 -191 -36 c -132 -13 -175 -4 -240 52 c -29 25 -31 29 -13 29 c 11 0 24 -4 30 -8 c 5 -5 32 -18 59 -29 c 45 -19 61 -20 157 -13 c 95 7 115 12 165 41 c 73 41 153 106 153 125 c 0 7 24 32 53 55 c 28 23 69 62 89 88 c 124 154 147 173 133 109 z m -2420 -108 c -13 -26 -20 -47 -46 -155 c -36 -145 -47 -256 -43 -401 c 3 -81 7 -150 9 -152 c 2 -2 -1 -16 -6 -30 c -6 -16 -6 -29 0 -35 c 6 -6 5 -15 -5 -24 c -14 -14 -60 -11 -93 7 c -28 15 -41 83 -42 220 c -1 137 2 159 51 295 c 9 28 25 75 35 105 c 28 88 92 190 125 202 c 25 9 31 -2 15 -32 z m 2330 -905 c 8 -73 -9 -245 -26 -256 c -8 -5 -16 -3 -21 4 c -12 20 -2 296 13 313 c 17 21 27 3 34 -61 z" stroke-linecap="round"/>
</g>
		<g transform="matrix(0.1333 0 0 -0.1333 8.286 -175.4271)">
<path style="stroke: none; stroke-width: 1; stroke-dasharray: none; stroke-linecap: butt; stroke-dashoffset: 0; stroke-linejoin: miter; stroke-miterlimit: 4; is-custom-font: none; font-file-url: none; fill: rgb(0,0,0); fill-rule: nonzero; opacity: 1;" transform=" translate(-3227.2162, -4185.6515)" d="M 3380 4375 c -9 -10 -9 -19 -2 -27 c 6 -7 8 -25 5 -40 c -4 -23 -9 -27 -29 -22 c -19 5 -37 -5 -87 -50 c -35 -31 -67 -56 -71 -56 c -4 0 -39 -21 -78 -47 c -39 -27 -89 -58 -111 -70 c -39 -21 -70 -60 -61 -75 c 7 -11 41 -10 62 2 c 9 5 35 17 57 26 c 22 10 56 27 75 39 c 19 12 70 41 113 63 c 43 23 88 51 99 62 c 12 11 25 20 30 20 c 11 0 10 -18 -2 -25 c -16 -10 -12 -25 7 -25 c 28 0 123 78 123 101 c 0 16 -5 20 -19 16 c -14 -3 -17 0 -13 15 c 2 10 -6 39 -18 64 c -25 47 -56 58 -80 29 z" stroke-linecap="round"/>
</g>
		<g transform="matrix(0.1333 0 0 -0.1333 -50.2468 -145.4899)">
<path style="stroke: none; stroke-width: 1; stroke-dasharray: none; stroke-linecap: butt; stroke-dashoffset: 0; stroke-linejoin: miter; stroke-miterlimit: 4; is-custom-font: none; font-file-url: none; fill: rgb(0,0,0); fill-rule: nonzero; opacity: 1;" transform=" translate(-2788.2962, -3961.1321)" d="M 3290 4094 c -127 -70 -216 -113 -270 -129 c -30 -9 -66 -21 -80 -26 c -22 -8 -74 -11 -150 -9 c -24 0 -45 -7 -103 -36 c -51 -25 -87 -14 -152 50 c -52 51 -166 87 -177 56 c -4 -12 -47 -13 -110 -4 c -52 7 -60 -2 -29 -30 c 12 -11 32 -16 55 -14 c 20 1 41 -3 48 -10 c 7 -7 24 -12 38 -12 c 27 0 170 -44 205 -63 c 29 -16 103 -25 250 -32 c 72 -3 153 -10 180 -15 c 28 -5 77 -12 110 -15 c 33 -3 71 -8 85 -10 c 14 -2 19 -2 13 1 c -18 8 -16 21 7 44 c 29 29 17 40 -43 40 c -71 0 -89 13 -39 28 c 22 7 52 12 68 12 c 38 0 45 6 86 70 c 19 30 49 70 67 87 c 18 18 30 37 26 43 c -9 15 -13 13 -85 -26 z" stroke-linecap="round"/>
</g>
		<g transform="matrix(0.1333 0 0 -0.1333 194.9949 -85.4698)">
<path style="stroke: none; stroke-width: 1; stroke-dasharray: none; stroke-linecap: butt; stroke-dashoffset: 0; stroke-linejoin: miter; stroke-miterlimit: 4; is-custom-font: none; font-file-url: none; fill: rgb(0,0,0); fill-rule: nonzero; opacity: 1;" transform=" translate(-4627.5, -3511)" d="M 4543 3552 c 38 -28 75 -60 84 -71 c 19 -29 85 -61 123 -61 c 27 0 30 3 30 29 c 0 25 -9 35 -62 68 c -66 40 -135 67 -203 78 l -40 7 l 68 -50 z" stroke-linecap="round"/>
</g>
		<g transform="matrix(0.1333 0 0 -0.1333 173.4902 25.9929)">
<path style="stroke: none; stroke-width: 1; stroke-dasharray: none; stroke-linecap: butt; stroke-dashoffset: 0; stroke-linejoin: miter; stroke-miterlimit: 4; is-custom-font: none; font-file-url: none; fill: rgb(0,0,0); fill-rule: nonzero; opacity: 1;" transform=" translate(-4466.2137, -2675)" d="M 4339 2863 c 63 -58 154 -250 178 -375 c 3 -16 10 -28 16 -28 c 6 0 7 29 3 85 c -4 47 -5 85 -2 85 c 10 0 66 -59 66 -70 c 0 -6 4 -8 10 -5 c 15 9 -26 77 -80 132 c -28 29 -50 60 -50 72 c 0 37 -110 131 -154 131 c -12 0 -8 -7 13 -27 z" stroke-linecap="round"/>
</g>
		<g transform="matrix(0.1333 0 0 -0.1333 141.4112 47.7431)">
<path style="stroke: none; stroke-width: 1; stroke-dasharray: none; stroke-linecap: butt; stroke-dashoffset: 0; stroke-linejoin: miter; stroke-miterlimit: 4; is-custom-font: none; font-file-url: none; fill: rgb(0,0,0); fill-rule: nonzero; opacity: 1;" transform=" translate(-4225.6431, -2511.8612)" d="M 4223 2743 c 12 -15 49 -55 83 -88 c 33 -33 63 -68 67 -77 c 9 -24 -12 -34 -27 -13 c -8 11 -20 15 -37 10 c -22 -5 -24 -11 -21 -42 c 4 -32 3 -34 -16 -24 c -17 9 -58 54 -147 159 c -68 81 -93 92 -62 27 c 9 -19 13 -36 8 -39 c -11 -7 -71 37 -71 53 c 0 8 -3 11 -7 8 c -7 -7 14 -53 34 -74 c 6 -7 21 -29 34 -50 c 12 -21 30 -47 40 -58 c 9 -11 44 -74 77 -141 c 64 -127 82 -150 108 -140 c 13 5 15 16 10 59 c -3 28 -2 59 3 67 c 9 12 14 11 34 -8 c 13 -12 27 -22 31 -22 c 8 0 2 111 -9 153 c -6 23 -4 27 13 27 c 21 0 32 -18 32 -50 c 0 -17 34 -50 52 -50 c 11 0 10 78 -2 119 c -14 50 -59 105 -75 91 c -10 -8 -29 6 -80 60 c -67 69 -116 98 -72 43 z" stroke-linecap="round"/>
</g>
		<g transform="matrix(0.1333 0 0 -0.1333 -352.3975 316.8258)">
<path style="stroke: none; stroke-width: 1; stroke-dasharray: none; stroke-linecap: butt; stroke-dashoffset: 0; stroke-linejoin: miter; stroke-miterlimit: 4; is-custom-font: none; font-file-url: none; fill: rgb(0,0,0); fill-rule: nonzero; opacity: 1;" transform=" translate(-522.0493, -493.7852)" d="M 448 528 c -55 -59 -64 -101 -25 -114 c 43 -14 138 -4 181 19 l 41 22 l -57 3 c -60 3 -74 17 -43 42 c 24 20 18 55 -10 68 c -14 7 -29 12 -32 12 c -4 0 -28 -23 -55 -52 z" stroke-linecap="round"/>
</g>
</g>
</g>
</svg>